<?xml version="1.0" encoding="UTF-8" standalone="no"?><!DOCTYPE svg PUBLIC "-//W3C//DTD SVG 1.1//EN" "http://www.w3.org/Graphics/SVG/1.1/DTD/svg11.dtd"><svg width="100%" height="100%" viewBox="0 0 680 185" version="1.1" xmlns="http://www.w3.org/2000/svg" xmlns:xlink="http://www.w3.org/1999/xlink" xml:space="preserve" xmlns:serif="http://www.serif.com/" style="fill-rule:evenodd;clip-rule:evenodd;stroke-linejoin:round;stroke-miterlimit:1.41421;"><g><path d="M49.313,4.862l42.136,106.266l42.367,-106.266l49.313,0l-73.622,174.563l-36.116,0l-73.391,-174.563l49.313,0Z" style="fill:#fff;fill-rule:nonzero;"/><path d="M231.053,82.883l8.566,0c8.952,0 15.821,-1.852 20.605,-5.556c4.785,-3.705 7.177,-9.029 7.177,-15.975c0,-6.945 -2.392,-12.27 -7.177,-15.975c-4.784,-3.704 -11.653,-5.556 -20.605,-5.556l-8.566,0l0,43.062Zm99.784,96.542l-56.49,0l-43.294,-67.139l0,67.139l-45.377,0l0,-174.563l70.612,0c9.724,0 18.213,1.428 25.467,4.283c7.254,2.856 13.235,6.753 17.943,11.692c4.707,4.939 8.257,10.649 10.649,17.132c2.393,6.482 3.589,13.428 3.589,20.836c0,13.274 -3.203,24.04 -9.608,32.297c-6.405,8.257 -15.859,13.852 -28.361,16.785l54.87,71.538Z" style="fill:#fff;fill-rule:nonzero;"/><path d="M416.729,81.726l90.06,0c0,9.26 -0.386,17.672 -1.157,25.235c-0.772,7.563 -2.316,14.585 -4.631,21.068c-3.241,9.106 -7.64,17.171 -13.196,24.193c-5.557,7.023 -12.078,12.888 -19.563,17.595c-7.486,4.708 -15.705,8.296 -24.657,10.766c-8.952,2.469 -18.367,3.704 -28.245,3.704c-13.582,0 -25.968,-2.238 -37.158,-6.714c-11.19,-4.476 -20.798,-10.765 -28.824,-18.868c-8.026,-8.103 -14.277,-17.827 -18.753,-29.171c-4.476,-11.345 -6.714,-23.885 -6.714,-37.622c0,-13.582 2.2,-26.045 6.598,-37.39c4.399,-11.344 10.65,-21.029 18.753,-29.055c8.103,-8.026 17.866,-14.277 29.287,-18.753c11.422,-4.476 24.155,-6.714 38.2,-6.714c18.213,0 34.187,3.936 47.924,11.808c13.737,7.871 24.618,20.064 32.644,36.579l-43.062,17.827c-4.013,-9.569 -9.222,-16.438 -15.627,-20.605c-6.406,-4.167 -13.699,-6.251 -21.879,-6.251c-6.791,0 -12.965,1.273 -18.521,3.82c-5.556,2.547 -10.303,6.174 -14.238,10.881c-3.936,4.708 -7.023,10.38 -9.261,17.017c-2.238,6.637 -3.357,14.045 -3.357,22.225c0,7.409 0.965,14.277 2.894,20.605c1.929,6.328 4.823,11.808 8.682,16.438c3.858,4.63 8.643,8.219 14.354,10.765c5.711,2.547 12.347,3.82 19.91,3.82c4.476,0 8.798,-0.501 12.965,-1.504c4.167,-1.004 7.91,-2.624 11.229,-4.862c3.318,-2.238 6.058,-5.132 8.219,-8.682c2.16,-3.55 3.627,-7.872 4.398,-12.965l-37.274,0l0,-35.19Z" style="fill:#fff;fill-rule:nonzero;"/><path d="M608.193,114.601l-20.373,-58.111l-20.374,58.111l40.747,0Zm12.039,34.496l-64.824,0l-10.419,30.328l-48.387,0l66.446,-174.563l49.544,0l66.445,174.563l-48.387,0l-10.418,-30.328Z" style="fill:#fff;fill-rule:nonzero;"/></g></svg>